<?xml version="1.0"?>
<svg width="256" height="256" xmlns="http://www.w3.org/2000/svg" xmlns:svg="http://www.w3.org/2000/svg">
 <g class="layer">
  <title>Layer 1</title>
  <path d="m160,128a32,32 0 1 1 -32,-32a32.04,32.04 0 0 1 32,32zm68,-44l0,88a56.06,56.06 0 0 1 -56,56l-88,0a56.06,56.06 0 0 1 -56,-56l0,-88a56.06,56.06 0 0 1 56,-56l88,0a56.06,56.06 0 0 1 56,56zm-52,44a48,48 0 1 0 -48,48a48.05,48.05 0 0 0 48,-48zm16,-52a12,12 0 1 0 -12,12a12,12 0 0 0 12,-12z" fill="#ffffff" id="svg_1"/>
 </g>
</svg>