<?xml version="1.0"?>
<svg width="310" height="310" xmlns="http://www.w3.org/2000/svg" xmlns:svg="http://www.w3.org/2000/svg" version="1.1" xml:space="preserve">
 <g class="layer">
  <title>Layer 1</title>
  <g id="XMLID_826_">
   <path d="m302.97,57.39c-4.87,2.16 -9.87,3.98 -14.99,5.46c6.06,-6.85 10.68,-14.91 13.49,-23.73c0.64,-1.98 -0.02,-4.14 -1.64,-5.43c-1.63,-1.3 -3.88,-1.45 -5.67,-0.39c-10.86,6.44 -22.59,11.07 -34.88,13.78c-12.38,-12.1 -29.19,-18.98 -46.58,-18.98c-36.69,0 -66.55,29.85 -66.55,66.54c0,2.89 0.19,5.77 0.55,8.6c-45.54,-4 -87.87,-26.38 -116.94,-62.04c-1.04,-1.27 -2.63,-1.95 -4.27,-1.82c-1.63,0.13 -3.1,1.05 -3.93,2.47c-5.89,10.11 -9.01,21.68 -9.01,33.46c0,16.03 5.73,31.25 15.84,43.13c-3.08,-1.06 -6.06,-2.39 -8.91,-3.97c-1.53,-0.85 -3.39,-0.84 -4.91,0.03c-1.52,0.87 -2.47,2.47 -2.51,4.22c-0.01,0.3 -0.01,0.59 -0.01,0.89c0,23.94 12.88,45.49 32.58,57.23c-1.7,-0.17 -3.39,-0.41 -5.07,-0.73c-1.73,-0.33 -3.51,0.27 -4.68,1.59c-1.17,1.32 -1.56,3.16 -1.02,4.84c7.29,22.76 26.06,39.5 48.75,44.61c-18.82,11.79 -40.34,17.96 -62.93,17.96c-4.71,0 -9.45,-0.28 -14.09,-0.83c-2.31,-0.27 -4.51,1.09 -5.3,3.28c-0.78,2.2 0.05,4.64 2.01,5.9c29.02,18.61 62.58,28.44 97.05,28.44c67.75,0 110.14,-31.95 133.76,-58.75c29.46,-33.42 46.36,-77.66 46.36,-121.37c0,-1.82 -0.03,-3.67 -0.09,-5.51c11.62,-8.75 21.63,-19.35 29.78,-31.53c1.23,-1.85 1.1,-4.3 -0.33,-6c-1.44,-1.7 -3.82,-2.25 -5.86,-1.35z" fill="#ffffff" id="XMLID_827_"/>
  </g>
 </g>
</svg>